<svg data-v-0dd9719b="" version="1.0" xmlns="http://www.w3.org/2000/svg" xmlns:xlink="http://www.w3.org/1999/xlink" width="100%" height="100%" viewBox="0 0 340.000000 250.000000" preserveAspectRatio="xMidYMid meet" color-interpolation-filters="sRGB" style="margin: auto;"> <rect data-v-0dd9719b="" x="0" y="0" width="100%" height="100%" fill="#fff" fill-opacity="1" class="background"></rect> <rect data-v-0dd9719b="" x="0" y="0" width="100%" height="100%" fill="url(#watermark)" fill-opacity="1" class="watermarklayer"></rect> <g data-v-0dd9719b="" fill="#333" class="icon-text-wrapper icon-svg-group iconsvg" transform="translate(48.06500244140625,101.49179077148438)"><g class="iconsvg-imagesvg" transform="translate(0,0)"><g><rect fill="#333" fill-opacity="0" stroke-width="2" x="0" y="0" width="60" height="47.016416565450776" class="image-rect"></rect> <svg x="0" y="0" width="60" height="47.016416565450776" filtersec="colorsb4238016226" class="image-svg-svg primary" style="overflow: visible;"><svg xmlns="http://www.w3.org/2000/svg" viewBox="-0.0073806531727313995 -0.01118114497512579 141.85055541992188 111.15534973144531"><title>资源 60</title><path d="M15.22.19a44.31 44.31 0 0 1 23.05 4C44.09 7 49.21 11 54.7 14.35c3.91 2.4 7.45 5.45 12.14 6.45a17.94 17.94 0 0 0 13.75-2.34c5.93-3.72 11.77-7.58 17.69-11.32a41.75 41.75 0 0 1 23.44-7c5.65.1 11.3.08 16.95 0 2.11 0 3 .63 3 2.86q-.18 6 0 11.94c.07 2.35-1 3-3.15 3q-8.36-.13-16.71 0c-10.58.16-20.11 3.59-28.88 9.36-3.26 2.14-6.53 4.27-9.87 6.27-7.92 4.74-16 4.88-24 .25-4.19-2.43-8.21-5.18-12.32-7.75A51.54 51.54 0 0 0 19 17.94c-5.25 0-10.5-.07-15.75 0C1 18 0 17.27.07 14.93c.12-3.93.12-7.8 0-11.69C0 1 .74.06 3.07.15c3.49.14 7 .04 12.15.04z" fill="#add27e"></path><path d="M12.2 41.33H2.64C.85 41.36 0 40.6.05 38.77.11 35.18.08 31.6.06 28c0-1.35.34-2.48 1.92-2.45 9.68.17 19.42-1 28.94 2a65.93 65.93 0 0 1 16.92 8.16c3.85 2.54 7.67 5.15 11.68 7.42 7.44 4.21 15.1 4.27 22.53.07 5-2.85 9.84-6.17 14.73-9.3A51.47 51.47 0 0 1 125 25.52h13.86c2 0 2.89.76 2.83 2.82-.09 3.34-.1 6.69 0 10 .07 2.19-.9 3-3 3q-7.17-.06-14.33 0a60.25 60.25 0 0 0-31.63 9.37c-3.39 2.09-6.63 4.45-10.11 6.35-8 4.38-16.13 4.35-24.08-.31C52.38 53.15 46.73 48.65 40 46c-9-3.46-18.15-5.44-27.8-4.67z" fill="#42c073"></path><path d="M131 64.38c-10.85-.45-22.1 2-32.9 6.73-5.29 2.3-9.92 5.72-14.8 8.71-8.26 5.06-16.6 5.37-24.7 0-10.18-6.75-20.85-12.2-33-14.33-7.19-1.25-14.42-1.1-21.66-1.11-3.8 0-3.88-.08-3.89-3.91v-7.16a2.05 2.05 0 0 1 2.28-2.38c12.43-.47 24.65.26 36.24 5.46 6.21 2.79 11.65 6.84 17.4 10.4C66.06 73 76 73 86 66.59c3-1.93 6-3.82 9.06-5.76A62.86 62.86 0 0 1 129 50.92c3.26 0 6.53.07 9.79 0 2.18-.06 3 .86 2.91 3-.11 2.54-.1 5.09 0 7.63.08 2-.71 2.94-2.78 2.87-2.34-.11-4.65-.04-7.92-.04z" fill="#2ca69b"></path><path d="M11.57 87.76c-3.68 0-6.23-.06-8.78 0-2.06.08-2.88-.83-2.79-2.85s.08-3.83 0-5.74.62-2.49 2.49-2.62c18.31-1.28 35 3.12 50.1 13.72 3.95 2.78 8 5.59 12.92 6.48 6.6 1.19 12.82.4 18.58-3.24 8.41-5.31 16.65-10.83 26.3-13.92s19.41-3.19 29.29-3c1.42 0 2 .75 2 2.1 0 2-.09 4 0 6 .14 2.25-.74 3.18-3 3.12-4-.1-8-.12-11.94 0a72 72 0 0 0-35.8 10.45c-3 1.81-5.91 3.78-9 5.5-7.4 4.18-14.92 4.27-22.26 0s-14.57-9.42-23-12c-8.52-2.76-17.2-4.5-25.11-4z" fill="#107298"></path><path d="M42.74 110.53c-.58.85-1.45.57-2.19.57H3.29c-3 0-3.28-.29-3.28-3.29 0-6.33-.65-5.64 6-5.91a69 69 0 0 1 34.67 7.17c.7.39 1.62.57 2.06 1.46zM98.72 110.4a68 68 0 0 1 16.28-6.56c8-2.3 16.23-1.9 24.42-1.86a1.66 1.66 0 0 1 .71.07c3 1.62 1.05 4.4 1.5 6.62a1.85 1.85 0 0 1-1.93 2.41h-37.97c-.88.02-1.88.32-3.01-.68z" fill="#095174"></path></svg></svg> <!----></g></g> <g transform="translate(67,3.288209915161133)"><g data-gra="path-name" fill-rule="" class="tp-name iconsvg-namesvg"><g transform="scale(1)"><g><path d="M38.08-38.9L38.08-38.9 38.08-37.8Q36.32-37.58 35.44-36.9 34.56-36.21 34.26-34.73 33.96-33.24 33.96-30.55L33.96-30.55 33.96 0.11Q33.3 0.05 32.61 0.05 31.92 0.05 31.15 0.11L31.15 0.11 7.31-30.11 7.31-9.01Q7.31-5.99 7.64-4.37 7.97-2.75 9.09-2.06 10.22-1.37 12.64-1.1L12.64-1.1 12.64 0Q11.59-0.11 9.89-0.14 8.19-0.16 6.7-0.16L6.7-0.16Q5.44-0.16 4.12-0.14 2.8-0.11 1.92 0L1.92 0 1.92-1.1Q3.68-1.37 4.56-2.03 5.44-2.69 5.74-4.2 6.04-5.71 6.04-8.35L6.04-8.35 6.04-33.08Q6.04-35.11 5.74-36.07 5.44-37.03 4.53-37.39 3.63-37.75 1.92-37.8L1.92-37.8 1.92-38.9Q2.8-38.85 4.12-38.79 5.44-38.74 6.7-38.74L6.7-38.74Q8.02-38.74 9.23-38.79 10.44-38.85 11.43-38.9L11.43-38.9 32.69-12.69 32.69-29.89Q32.69-32.91 32.36-34.53 32.03-36.15 30.91-36.87 29.78-37.58 27.36-37.8L27.36-37.8 27.36-38.9Q28.41-38.85 30.11-38.79 31.81-38.74 33.3-38.74L33.3-38.74Q34.62-38.74 35.91-38.79 37.2-38.85 38.08-38.9ZM61.1-39.67L61.1-39.67Q64.73-39.67 67.06-38.6 69.4-37.53 71.21-36.1L71.21-36.1Q72.31-35.27 72.88-35.91 73.46-36.54 73.68-38.9L73.68-38.9 74.95-38.9Q74.84-36.76 74.78-33.71 74.73-30.66 74.73-25.6L74.73-25.6 73.46-25.6Q73.19-28.13 72.75-29.92 72.31-31.7 71.54-33.08 70.77-34.45 69.34-35.55L69.34-35.55Q67.97-36.92 66.15-37.58 64.34-38.24 62.36-38.24L62.36-38.24Q59.4-38.24 57.31-36.68 55.22-35.11 53.93-32.42 52.64-29.73 52.03-26.35 51.43-22.97 51.43-19.34L51.43-19.34Q51.43-15.66 52.06-12.28 52.69-8.9 54.04-6.26 55.38-3.63 57.53-2.09 59.67-0.55 62.58-0.55L62.58-0.55Q64.4-0.55 66.24-1.24 68.08-1.92 69.4-3.24L69.4-3.24Q71.54-4.89 72.31-7.34 73.08-9.78 73.46-13.85L73.46-13.85 74.73-13.85Q74.73-8.63 74.78-5.41 74.84-2.2 74.95 0L74.95 0 73.68 0Q73.46-2.36 72.94-2.97 72.42-3.57 71.21-2.8L71.21-2.8Q69.18-1.37 66.9-0.3 64.62 0.77 61.04 0.77L61.04 0.77Q55.22 0.77 50.85-1.59 46.48-3.96 44.07-8.41 41.65-12.86 41.65-19.12L41.65-19.12Q41.65-25.27 44.15-29.89 46.65-34.51 51.02-37.09 55.38-39.67 61.1-39.67ZM109.29-38.9L109.29-38.9Q109.07-36.48 108.98-34.23 108.9-31.98 108.9-30.77L108.9-30.77Q108.9-29.67 108.96-28.68 109.01-27.69 109.07-27.03L109.07-27.03 107.8-27.03Q107.25-31.04 106.1-33.38 104.95-35.71 103.1-36.68 101.26-37.64 98.79-37.64L98.79-37.64 96.54-37.64Q94.89-37.64 94.09-37.36 93.3-37.09 93.02-36.29 92.75-35.49 92.75-33.74L92.75-33.74 92.75-5.16Q92.75-3.46 93.02-2.64 93.3-1.81 94.09-1.54 94.89-1.26 96.54-1.26L96.54-1.26 99.23-1.26Q101.7-1.26 103.6-2.34 105.49-3.41 106.84-5.99 108.19-8.57 108.9-12.97L108.9-12.97 110.16-12.97Q110-11.21 110-8.35L110-8.35Q110-7.09 110.05-4.78 110.11-2.47 110.38 0L110.38 0Q107.58-0.11 104.07-0.14 100.55-0.16 97.8-0.16L97.8-0.16Q95.93-0.16 92.86-0.16 89.78-0.16 86.32-0.14 82.86-0.11 79.89 0L79.89 0 79.89-1.1Q81.65-1.21 82.53-1.54 83.41-1.87 83.71-2.86 84.01-3.85 84.01-5.82L84.01-5.82 84.01-33.08Q84.01-35.11 83.71-36.07 83.41-37.03 82.5-37.39 81.59-37.75 79.89-37.8L79.89-37.8 79.89-38.9Q82.86-38.85 86.32-38.79 89.78-38.74 92.86-38.74 95.93-38.74 97.8-38.74L97.8-38.74Q100.33-38.74 103.54-38.76 106.76-38.79 109.29-38.9ZM91.1-20.11L100.71-20.11Q100.71-20.11 100.71-19.56 100.71-19.01 100.71-19.01L100.71-19.01 91.1-19.01Q91.1-19.01 91.1-19.56 91.1-20.11 91.1-20.11L91.1-20.11ZM101.04-27.36L102.31-27.36Q102.09-24.23 102.12-22.58 102.14-20.93 102.14-19.56L102.14-19.56Q102.14-18.19 102.2-16.54 102.25-14.89 102.47-11.76L102.47-11.76 101.21-11.76Q100.93-13.68 100.19-15.33 99.45-16.98 98.08-17.99 96.7-19.01 94.51-19.01L94.51-19.01 94.51-20.11Q96.7-20.11 98.02-21.32 99.34-22.53 100.05-24.2 100.77-25.88 101.04-27.36L101.04-27.36ZM132.03-38.9L132.03-38.9 132.03-37.8Q130.16-37.75 129.2-37.39 128.24-37.03 127.91-36.07 127.58-35.11 127.58-33.08L127.58-33.08 127.58-5.16Q127.58-3.46 127.83-2.64 128.08-1.81 128.82-1.54 129.56-1.26 131.04-1.26L131.04-1.26 133.74-1.26Q136.26-1.26 138.32-2.8 140.38-4.34 141.79-7.12 143.19-9.89 143.74-13.52L143.74-13.52 145-13.52Q144.84-11.65 144.84-8.68L144.84-8.68Q144.84-7.42 144.89-5 144.95-2.58 145.22 0L145.22 0Q142.42-0.11 138.9-0.14 135.38-0.16 132.64-0.16L132.64-0.16Q130.77-0.16 127.69-0.16 124.62-0.16 121.15-0.14 117.69-0.11 114.73 0L114.73 0 114.73-1.1Q116.48-1.21 117.36-1.54 118.24-1.87 118.54-2.86 118.85-3.85 118.85-5.82L118.85-5.82 118.85-33.08Q118.85-35.11 118.54-36.07 118.24-37.03 117.34-37.39 116.43-37.75 114.73-37.8L114.73-37.8 114.73-38.9Q116.1-38.85 118.43-38.79 120.77-38.74 123.41-38.74L123.41-38.74Q125.82-38.74 128.16-38.79 130.49-38.85 132.03-38.9ZM165.6-38.9L165.6-38.9 165.6-37.8Q163.74-37.75 162.77-37.39 161.81-37.03 161.48-36.07 161.15-35.11 161.15-33.08L161.15-33.08 161.15-5.16Q161.15-3.46 161.4-2.64 161.65-1.81 162.39-1.54 163.13-1.26 164.62-1.26L164.62-1.26 167.31-1.26Q169.84-1.26 171.9-2.8 173.96-4.34 175.36-7.12 176.76-9.89 177.31-13.52L177.31-13.52 178.57-13.52Q178.41-11.65 178.41-8.68L178.41-8.68Q178.41-7.42 178.46-5 178.52-2.58 178.79 0L178.79 0Q175.99-0.11 172.47-0.14 168.96-0.16 166.21-0.16L166.21-0.16Q164.34-0.16 161.26-0.16 158.19-0.16 154.73-0.14 151.26-0.11 148.3 0L148.3 0 148.3-1.1Q150.05-1.21 150.93-1.54 151.81-1.87 152.12-2.86 152.42-3.85 152.42-5.82L152.42-5.82 152.42-33.08Q152.42-35.11 152.12-36.07 151.81-37.03 150.91-37.39 150-37.75 148.3-37.8L148.3-37.8 148.3-38.9Q149.67-38.85 152.01-38.79 154.34-38.74 156.98-38.74L156.98-38.74Q159.4-38.74 161.73-38.79 164.07-38.85 165.6-38.9Z" transform="translate(-1.9200000762939453, 39.66999816894531)"></path></g> <!----> <!----> <!----> <!----> <!----> <!----> <!----></g></g> <!----></g></g><defs v-gra="od"></defs></svg>